<?xml version="1.0" encoding="UTF-8"?>
<svg xmlns="http://www.w3.org/2000/svg" xmlns:xlink="http://www.w3.org/1999/xlink" width="11pt" height="15pt" viewBox="0 0 11 15" version="1.1">
<g id="surface1">
<path style=" stroke:none;fill-rule:nonzero;fill:rgb(45.882353%,66.27451%,15.686275%);fill-opacity:1;" d="M 3.511719 4.851562 C 3.761719 4.976562 3.90625 5.074219 3.984375 5.160156 C 3.945312 5.320312 3.734375 5.324219 3.65625 5.320312 C 3.671875 5.3125 3.683594 5.304688 3.6875 5.292969 C 3.667969 5.277344 3.601562 5.289062 3.550781 5.265625 C 3.570312 5.261719 3.578125 5.257812 3.585938 5.246094 C 3.542969 5.230469 3.492188 5.21875 3.464844 5.195312 C 3.480469 5.195312 3.492188 5.199219 3.515625 5.183594 C 3.472656 5.164062 3.429688 5.148438 3.394531 5.113281 C 3.417969 5.113281 3.441406 5.113281 3.445312 5.105469 C 3.410156 5.085938 3.378906 5.058594 3.351562 5.03125 C 3.382812 5.035156 3.394531 5.03125 3.402344 5.027344 C 3.371094 5 3.335938 4.976562 3.320312 4.941406 C 3.339844 4.949219 3.363281 4.953125 3.375 4.941406 C 3.367188 4.921875 3.324219 4.90625 3.300781 4.859375 C 3.324219 4.859375 3.347656 4.863281 3.355469 4.859375 C 3.34375 4.816406 3.324219 4.792969 3.308594 4.769531 C 3.355469 4.769531 3.429688 4.769531 3.429688 4.765625 L 3.398438 4.734375 C 3.445312 4.722656 3.496094 4.738281 3.53125 4.746094 C 3.546875 4.734375 3.53125 4.71875 3.511719 4.703125 C 3.550781 4.707031 3.589844 4.71875 3.621094 4.730469 C 3.640625 4.714844 3.609375 4.699219 3.597656 4.683594 C 3.660156 4.695312 3.6875 4.710938 3.714844 4.726562 C 3.734375 4.710938 3.714844 4.695312 3.703125 4.679688 C 3.75 4.695312 3.773438 4.71875 3.800781 4.738281 C 3.808594 4.730469 3.824219 4.71875 3.804688 4.691406 C 3.839844 4.710938 3.867188 4.734375 3.886719 4.757812 C 3.90625 4.746094 3.898438 4.726562 3.898438 4.710938 C 3.933594 4.738281 3.957031 4.769531 3.984375 4.796875 C 3.988281 4.792969 3.992188 4.78125 3.996094 4.761719 C 4.082031 4.839844 4.199219 5.039062 4.027344 5.117188 C 3.882812 5 3.707031 4.914062 3.511719 4.851562 M 4.835938 4.851562 C 4.585938 4.976562 4.441406 5.074219 4.363281 5.160156 C 4.402344 5.320312 4.617188 5.324219 4.695312 5.320312 C 4.679688 5.3125 4.664062 5.304688 4.660156 5.292969 C 4.679688 5.277344 4.75 5.289062 4.796875 5.265625 C 4.777344 5.261719 4.769531 5.257812 4.761719 5.246094 C 4.804688 5.230469 4.855469 5.21875 4.882812 5.195312 C 4.867188 5.195312 4.855469 5.199219 4.835938 5.183594 C 4.875 5.164062 4.917969 5.148438 4.953125 5.113281 C 4.929688 5.113281 4.910156 5.113281 4.902344 5.105469 C 4.9375 5.085938 4.972656 5.058594 4.996094 5.03125 C 4.96875 5.035156 4.953125 5.03125 4.949219 5.027344 C 4.976562 5 5.011719 4.976562 5.027344 4.941406 C 5.007812 4.949219 4.988281 4.953125 4.972656 4.941406 C 4.980469 4.921875 5.023438 4.90625 5.046875 4.859375 C 5.023438 4.859375 5 4.863281 4.996094 4.859375 C 5.003906 4.816406 5.023438 4.792969 5.042969 4.769531 C 4.992188 4.769531 4.917969 4.769531 4.921875 4.765625 L 4.953125 4.734375 C 4.902344 4.722656 4.851562 4.738281 4.816406 4.746094 C 4.800781 4.734375 4.816406 4.71875 4.835938 4.703125 C 4.796875 4.707031 4.757812 4.71875 4.726562 4.730469 C 4.707031 4.714844 4.738281 4.699219 4.75 4.683594 C 4.6875 4.695312 4.660156 4.710938 4.632812 4.726562 C 4.613281 4.710938 4.632812 4.695312 4.648438 4.679688 C 4.597656 4.695312 4.574219 4.71875 4.546875 4.738281 C 4.539062 4.730469 4.527344 4.71875 4.542969 4.691406 C 4.507812 4.710938 4.484375 4.734375 4.464844 4.757812 C 4.441406 4.746094 4.449219 4.726562 4.449219 4.710938 C 4.414062 4.738281 4.394531 4.769531 4.367188 4.796875 C 4.359375 4.792969 4.355469 4.78125 4.351562 4.761719 C 4.265625 4.839844 4.148438 5.039062 4.320312 5.117188 C 4.46875 5 4.644531 4.914062 4.835938 4.851562 "/>
<path style=" stroke:none;fill-rule:nonzero;fill:rgb(73.72549%,6.666667%,25.882353%);fill-opacity:1;" d="M 4.476562 6.457031 C 4.476562 6.601562 4.34375 6.722656 4.179688 6.722656 C 4.015625 6.722656 3.878906 6.605469 3.878906 6.457031 C 3.878906 6.308594 4.011719 6.1875 4.175781 6.1875 C 4.339844 6.1875 4.476562 6.304688 4.476562 6.453125 L 4.476562 6.457031 M 4.003906 5.695312 C 4.128906 5.773438 4.152344 5.949219 4.054688 6.089844 C 3.957031 6.230469 3.777344 6.28125 3.65625 6.203125 C 3.53125 6.125 3.507812 5.949219 3.605469 5.808594 C 3.703125 5.667969 3.878906 5.617188 4.003906 5.695312 M 4.339844 5.679688 C 4.214844 5.757812 4.191406 5.9375 4.289062 6.078125 C 4.386719 6.21875 4.566406 6.269531 4.6875 6.191406 C 4.8125 6.113281 4.835938 5.933594 4.738281 5.792969 C 4.640625 5.652344 4.464844 5.601562 4.339844 5.679688 M 3.382812 5.824219 C 3.519531 5.789062 3.429688 6.355469 3.320312 6.308594 C 3.199219 6.21875 3.160156 5.945312 3.382812 5.824219 M 4.933594 5.816406 C 4.796875 5.78125 4.886719 6.351562 4.996094 6.304688 C 5.117188 6.210938 5.15625 5.9375 4.933594 5.816406 M 4.476562 5.390625 C 4.707031 5.355469 4.902344 5.488281 4.894531 5.726562 C 4.886719 5.820312 4.390625 5.40625 4.476562 5.390625 M 3.839844 5.382812 C 3.605469 5.347656 3.414062 5.480469 3.421875 5.722656 C 3.429688 5.8125 3.921875 5.398438 3.839844 5.382812 M 4.171875 5.328125 C 4.03125 5.324219 3.898438 5.425781 3.898438 5.488281 C 3.898438 5.558594 4.007812 5.632812 4.171875 5.632812 C 4.335938 5.636719 4.441406 5.574219 4.445312 5.5 C 4.445312 5.417969 4.292969 5.328125 4.171875 5.328125 M 4.179688 6.804688 C 4.300781 6.800781 4.460938 6.84375 4.460938 6.898438 C 4.464844 6.953125 4.316406 7.078125 4.171875 7.074219 C 4.023438 7.082031 3.875 6.957031 3.878906 6.914062 C 3.875 6.851562 4.058594 6.800781 4.179688 6.804688 M 3.734375 6.472656 C 3.820312 6.570312 3.859375 6.746094 3.789062 6.796875 C 3.71875 6.835938 3.554688 6.820312 3.4375 6.660156 C 3.359375 6.523438 3.371094 6.386719 3.425781 6.34375 C 3.507812 6.296875 3.636719 6.363281 3.734375 6.472656 M 4.605469 6.441406 C 4.511719 6.546875 4.460938 6.734375 4.53125 6.796875 C 4.59375 6.84375 4.765625 6.839844 4.894531 6.667969 C 4.988281 6.550781 4.957031 6.359375 4.90625 6.308594 C 4.824219 6.25 4.710938 6.324219 4.605469 6.441406 "/>
</g>
</svg>
