<?xml version="1.0" encoding="UTF-8"?>
<svg xmlns="http://www.w3.org/2000/svg" xmlns:xlink="http://www.w3.org/1999/xlink" width="20pt" height="20pt" viewBox="0 0 20 20" version="1.1">
<g id="surface1">
<path style=" stroke:none;fill-rule:nonzero;fill:rgb(0%,0%,0%);fill-opacity:1;" d="M 4.128906 0 C 4.03125 0.00390625 3.925781 0.0390625 3.804688 0.136719 C 3.511719 0.0234375 3.222656 -0.0195312 2.96875 0.21875 C 2.574219 0.164062 2.445312 0.273438 2.347656 0.402344 C 2.261719 0.398438 1.699219 0.308594 1.441406 0.703125 C 0.796875 0.625 0.589844 1.09375 0.824219 1.53125 C 0.691406 1.742188 0.554688 1.949219 0.863281 2.351562 C 0.753906 2.574219 0.820312 2.816406 1.078125 3.109375 C 1.011719 3.421875 1.144531 3.644531 1.382812 3.816406 C 1.339844 4.246094 1.765625 4.492188 1.894531 4.582031 C 1.945312 4.832031 2.046875 5.070312 2.535156 5.199219 C 2.617188 5.570312 2.910156 5.636719 3.195312 5.714844 C 2.253906 6.277344 1.445312 7.015625 1.453125 8.824219 L 1.316406 9.078125 C 0.234375 9.75 -0.734375 11.914062 0.785156 13.675781 C 0.882812 14.226562 1.046875 14.621094 1.195312 15.058594 C 1.417969 16.820312 2.863281 17.648438 3.246094 17.746094 C 3.800781 18.183594 4.398438 18.597656 5.203125 18.886719 C 5.960938 19.691406 6.785156 19.996094 7.609375 19.996094 C 7.621094 19.996094 9.292969 19.691406 10.054688 18.886719 C 10.859375 18.597656 11.453125 18.183594 12.011719 17.746094 C 12.394531 17.648438 13.839844 16.820312 14.058594 15.058594 C 14.207031 14.621094 14.375 14.226562 14.472656 13.675781 C 15.992188 11.914062 15.019531 9.75 13.941406 9.078125 L 13.804688 8.824219 C 13.808594 7.015625 13 6.277344 12.0625 5.714844 C 12.34375 5.636719 12.640625 5.570312 12.71875 5.199219 C 13.210938 5.070312 13.3125 4.832031 13.359375 4.582031 C 13.488281 4.492188 13.917969 4.246094 13.871094 3.816406 C 14.113281 3.644531 14.246094 3.421875 14.175781 3.109375 C 14.433594 2.816406 14.503906 2.574219 14.394531 2.351562 C 14.703125 1.949219 14.566406 1.742188 14.433594 1.53125 C 14.664062 1.09375 14.460938 0.625 13.8125 0.703125 C 13.554688 0.308594 12.992188 0.398438 12.90625 0.402344 C 12.808594 0.273438 12.683594 0.164062 12.289062 0.21875 C 12.03125 -0.0195312 11.746094 0.0195312 11.449219 0.136719 C 11.101562 -0.144531 10.871094 0.0820312 10.605469 0.167969 C 10.179688 0.0273438 10.082031 0.21875 9.875 0.300781 C 9.414062 0.199219 9.273438 0.417969 9.050781 0.648438 L 8.792969 0.644531 C 8.097656 1.0625 7.75 1.921875 7.628906 2.363281 C 7.503906 1.921875 7.160156 1.0625 6.460938 0.644531 L 6.203125 0.648438 C 5.984375 0.417969 5.84375 0.199219 5.378906 0.300781 C 5.171875 0.21875 5.074219 0.0273438 4.652344 0.167969 C 4.476562 0.113281 4.316406 -0.00390625 4.128906 0 L -0.65625 8.625 "/>
<path style=" stroke:none;fill-rule:nonzero;fill:rgb(45.882353%,66.27451%,15.686275%);fill-opacity:1;" d="M 2.742188 1.855469 C 4.589844 2.832031 5.667969 3.625 6.253906 4.300781 C 5.953125 5.539062 4.378906 5.597656 3.804688 5.5625 C 3.921875 5.507812 4.019531 5.4375 4.054688 5.335938 C 3.910156 5.230469 3.398438 5.324219 3.042969 5.117188 C 3.179688 5.089844 3.242188 5.058594 3.308594 4.957031 C 2.96875 4.847656 2.605469 4.75 2.390625 4.566406 C 2.507812 4.570312 2.617188 4.59375 2.765625 4.488281 C 2.464844 4.320312 2.140625 4.1875 1.890625 3.929688 C 2.046875 3.925781 2.214844 3.929688 2.265625 3.871094 C 1.988281 3.695312 1.753906 3.5 1.5625 3.285156 C 1.78125 3.3125 1.871094 3.289062 1.925781 3.25 C 1.714844 3.03125 1.449219 2.84375 1.324219 2.574219 C 1.488281 2.628906 1.636719 2.652344 1.742188 2.566406 C 1.671875 2.402344 1.367188 2.304688 1.191406 1.921875 C 1.363281 1.9375 1.542969 1.960938 1.582031 1.921875 C 1.5 1.589844 1.363281 1.402344 1.230469 1.207031 C 1.597656 1.203125 2.152344 1.210938 2.125 1.179688 L 1.902344 0.941406 C 2.257812 0.84375 2.625 0.957031 2.890625 1.042969 C 3.007812 0.945312 2.886719 0.824219 2.742188 0.699219 C 3.046875 0.742188 3.320312 0.8125 3.570312 0.910156 C 3.703125 0.789062 3.484375 0.664062 3.375 0.542969 C 3.847656 0.632812 4.046875 0.761719 4.242188 0.890625 C 4.386719 0.75 4.25 0.628906 4.15625 0.507812 C 4.507812 0.640625 4.691406 0.816406 4.882812 0.988281 C 4.949219 0.898438 5.046875 0.832031 4.925781 0.613281 C 5.179688 0.761719 5.367188 0.9375 5.507812 1.132812 C 5.664062 1.03125 5.601562 0.894531 5.601562 0.765625 C 5.863281 0.984375 6.027344 1.214844 6.230469 1.441406 C 6.273438 1.410156 6.308594 1.308594 6.339844 1.144531 C 6.960938 1.765625 7.84375 3.328125 6.566406 3.945312 C 5.480469 3.027344 4.179688 2.355469 2.742188 1.855469 M 12.554688 1.855469 C 10.707031 2.835938 9.632812 3.625 9.042969 4.300781 C 9.34375 5.539062 10.917969 5.597656 11.492188 5.5625 C 11.375 5.507812 11.277344 5.4375 11.242188 5.335938 C 11.386719 5.230469 11.898438 5.324219 12.253906 5.117188 C 12.117188 5.089844 12.054688 5.058594 11.988281 4.957031 C 12.328125 4.847656 12.691406 4.75 12.90625 4.566406 C 12.789062 4.570312 12.683594 4.59375 12.53125 4.488281 C 12.832031 4.320312 13.15625 4.1875 13.40625 3.929688 C 13.25 3.925781 13.082031 3.929688 13.035156 3.871094 C 13.308594 3.695312 13.542969 3.5 13.738281 3.285156 C 13.519531 3.3125 13.425781 3.289062 13.371094 3.25 C 13.582031 3.03125 13.847656 2.84375 13.972656 2.574219 C 13.8125 2.628906 13.660156 2.652344 13.554688 2.566406 C 13.625 2.402344 13.929688 2.304688 14.105469 1.921875 C 13.933594 1.9375 13.753906 1.960938 13.71875 1.921875 C 13.796875 1.589844 13.933594 1.402344 14.066406 1.207031 C 13.699219 1.203125 13.144531 1.210938 13.171875 1.179688 L 13.398438 0.941406 C 13.039062 0.84375 12.671875 0.957031 12.40625 1.042969 C 12.289062 0.945312 12.410156 0.824219 12.554688 0.699219 C 12.25 0.742188 11.976562 0.8125 11.730469 0.910156 C 11.597656 0.789062 11.816406 0.664062 11.921875 0.542969 C 11.453125 0.632812 11.253906 0.761719 11.054688 0.890625 C 10.910156 0.75 11.046875 0.628906 11.144531 0.507812 C 10.789062 0.640625 10.605469 0.816406 10.414062 0.988281 C 10.351562 0.894531 10.25 0.832031 10.371094 0.613281 C 10.121094 0.761719 9.929688 0.9375 9.789062 1.132812 C 9.632812 1.03125 9.699219 0.890625 9.695312 0.765625 C 9.433594 0.984375 9.269531 1.214844 9.066406 1.441406 C 9.027344 1.410156 8.988281 1.308594 8.957031 1.144531 C 8.335938 1.761719 7.453125 3.328125 8.730469 3.945312 C 9.820312 3.027344 11.117188 2.355469 12.554688 1.855469 "/>
<path style=" stroke:none;fill-rule:nonzero;fill:rgb(73.72549%,6.666667%,25.882353%);fill-opacity:1;" d="M 9.886719 14.492188 C 9.894531 15.648438 8.910156 16.59375 7.683594 16.597656 C 6.460938 16.605469 5.464844 15.671875 5.457031 14.511719 C 5.457031 14.507812 5.457031 14.5 5.457031 14.492188 C 5.453125 13.332031 6.4375 12.390625 7.660156 12.382812 C 8.886719 12.378906 9.882812 13.3125 9.886719 14.46875 L 9.886719 14.492188 M 6.390625 8.5 C 7.308594 9.117188 7.476562 10.519531 6.761719 11.625 C 6.046875 12.734375 4.722656 13.132812 3.804688 12.515625 C 2.886719 11.898438 2.722656 10.5 3.4375 9.390625 C 4.148438 8.28125 5.472656 7.882812 6.390625 8.5 M 8.867188 8.390625 C 7.949219 9.007812 7.785156 10.40625 8.5 11.515625 C 9.214844 12.625 10.535156 13.023438 11.453125 12.40625 C 12.371094 11.789062 12.539062 10.386719 11.824219 9.28125 C 11.109375 8.171875 9.785156 7.773438 8.867188 8.390625 M 1.804688 9.511719 C 2.792969 9.238281 2.136719 13.71875 1.332031 13.351562 C 0.445312 12.621094 0.160156 10.476562 1.804688 9.511719 M 13.257812 9.457031 C 12.265625 9.183594 12.921875 13.664062 13.730469 13.296875 C 14.617188 12.5625 14.902344 10.417969 13.257812 9.457031 M 9.890625 6.117188 C 11.601562 5.820312 13.023438 6.863281 12.964844 8.769531 C 12.910156 9.5 9.257812 6.226562 9.890625 6.117188 M 5.164062 6.0625 C 3.453125 5.765625 2.03125 6.808594 2.085938 8.710938 C 2.144531 9.441406 5.792969 6.171875 5.164062 6.0625 M 7.621094 5.617188 C 6.601562 5.589844 5.621094 6.394531 5.617188 6.863281 C 5.613281 7.429688 6.425781 8.011719 7.628906 8.027344 C 8.855469 8.035156 9.640625 7.5625 9.644531 6.976562 C 9.648438 6.3125 8.527344 5.609375 7.621094 5.617188 M 7.683594 17.25 C 8.574219 17.210938 9.765625 17.542969 9.769531 17.988281 C 9.785156 18.417969 8.6875 19.390625 7.625 19.371094 C 6.523438 19.421875 5.445312 18.445312 5.457031 18.109375 C 5.441406 17.613281 6.796875 17.226562 7.683594 17.25 M 4.394531 14.625 C 5.027344 15.40625 5.316406 16.785156 4.789062 17.191406 C 4.289062 17.5 3.074219 17.371094 2.210938 16.097656 C 1.628906 15.03125 1.703125 13.941406 2.113281 13.625 C 2.722656 13.242188 3.667969 13.757812 4.394531 14.625 M 10.84375 14.375 C 10.15625 15.199219 9.777344 16.703125 10.277344 17.1875 C 10.753906 17.5625 12.039062 17.511719 12.988281 16.160156 C 13.675781 15.253906 13.445312 13.738281 13.050781 13.335938 C 12.464844 12.871094 11.628906 13.464844 10.84375 14.375 "/>
</g>
</svg>
